<svg width="32" height="32" viewBox="0 0 32 32" fill="none" xmlns="http://www.w3.org/2000/svg">
<mask id="path-1-inside-1_187_3484" fill="white">
<path fill-rule="evenodd" clip-rule="evenodd" d="M0.84375 4.36523V27.3652L4.84143 31.3629H27.8461L31.8438 27.3652V4.36523L27.8438 0.365234L27.8461 0.362915H4.84143L4.84375 0.365234L0.84375 4.36523Z"/>
</mask>
<path fill-rule="evenodd" clip-rule="evenodd" d="M0.84375 4.36523V27.3652L4.84143 31.3629H27.8461L31.8438 27.3652V4.36523L27.8438 0.365234L27.8461 0.362915H4.84143L4.84375 0.365234L0.84375 4.36523Z" fill="white"/>
<path d="M0.84375 4.36523L0.136643 3.65813L-0.15625 3.95102V4.36523H0.84375ZM0.84375 27.3652H-0.15625V27.7794L0.136643 28.0723L0.84375 27.3652ZM4.84143 31.3629L4.13432 32.07L4.42722 32.3629H4.84143V31.3629ZM27.8461 31.3629V32.3629H28.2603L28.5532 32.07L27.8461 31.3629ZM31.8438 27.3652L32.5509 28.0723L32.8438 27.7794V27.3652H31.8438ZM31.8438 4.36523H32.8438V3.95102L32.5509 3.65813L31.8438 4.36523ZM27.8438 0.365234L27.1366 -0.341872L26.4295 0.365234L27.1366 1.07234L27.8438 0.365234ZM27.8461 0.362915L28.5532 1.07002L30.2603 -0.637085H27.8461V0.362915ZM4.84143 0.362915V-0.637085H2.42722L4.13432 1.07002L4.84143 0.362915ZM4.84375 0.365234L5.55086 1.07234L6.25796 0.365234L5.55086 -0.341872L4.84375 0.365234ZM-0.15625 4.36523V27.3652H1.84375V4.36523H-0.15625ZM0.136643 28.0723L4.13432 32.07L5.54854 30.6558L1.55086 26.6581L0.136643 28.0723ZM4.84143 32.3629H27.8461V30.3629H4.84143V32.3629ZM28.5532 32.07L32.5509 28.0723L31.1366 26.6581L27.139 30.6558L28.5532 32.07ZM32.8438 27.3652V4.36523H30.8438V27.3652H32.8438ZM32.5509 3.65813L28.5509 -0.341872L27.1366 1.07234L31.1366 5.07234L32.5509 3.65813ZM28.5509 1.07234L28.5532 1.07002L27.139 -0.344192L27.1366 -0.341872L28.5509 1.07234ZM27.8461 -0.637085H4.84143V1.36292H27.8461V-0.637085ZM4.13432 1.07002L4.13664 1.07234L5.55086 -0.341872L5.54854 -0.344192L4.13432 1.07002ZM4.13664 -0.341872L0.136643 3.65813L1.55086 5.07234L5.55086 1.07234L4.13664 -0.341872Z" fill="#B0BAC9" mask="url(#path-1-inside-1_187_3484)"/>
</svg>
