<svg width="33" height="33" viewBox="0 0 33 33" fill="none" xmlns="http://www.w3.org/2000/svg">
<mask id="path-1-inside-1_187_3449" fill="white">
<path fill-rule="evenodd" clip-rule="evenodd" d="M0.244141 4.39996V28.4L4.24182 32.3976H28.2465L32.2441 28.4V4.39996L28.2441 0.399963L28.2465 0.397644H4.24182L4.24414 0.399963L0.244141 4.39996Z"/>
</mask>
<path fill-rule="evenodd" clip-rule="evenodd" d="M0.244141 4.39996V28.4L4.24182 32.3976H28.2465L32.2441 28.4V4.39996L28.2441 0.399963L28.2465 0.397644H4.24182L4.24414 0.399963L0.244141 4.39996Z" fill="white"/>
<path d="M0.244141 4.39996L-0.462966 3.69286L-0.755859 3.98575V4.39996H0.244141ZM0.244141 28.4H-0.755859V28.8142L-0.462966 29.1071L0.244141 28.4ZM4.24182 32.3976L3.53471 33.1048L3.82761 33.3976H4.24182V32.3976ZM28.2465 32.3976V33.3976H28.6607L28.9536 33.1048L28.2465 32.3976ZM32.2441 28.4L32.9512 29.1071L33.2441 28.8142V28.4H32.2441ZM32.2441 4.39996H33.2441V3.98575L32.9512 3.69286L32.2441 4.39996ZM28.2441 0.399963L27.537 -0.307143L26.8299 0.399963L27.537 1.10707L28.2441 0.399963ZM28.2465 0.397644L28.9536 1.10475L30.6607 -0.602356H28.2465V0.397644ZM4.24182 0.397644V-0.602356H1.82761L3.53471 1.10475L4.24182 0.397644ZM4.24414 0.399963L4.95125 1.10707L5.65835 0.399963L4.95125 -0.307143L4.24414 0.399963ZM-0.755859 4.39996V28.4H1.24414V4.39996H-0.755859ZM-0.462966 29.1071L3.53471 33.1048L4.94893 31.6905L0.951247 27.6929L-0.462966 29.1071ZM4.24182 33.3976H28.2465V31.3976H4.24182V33.3976ZM28.9536 33.1048L32.9512 29.1071L31.537 27.6929L27.5394 31.6905L28.9536 33.1048ZM33.2441 28.4V4.39996H31.2441V28.4H33.2441ZM32.9512 3.69286L28.9512 -0.307143L27.537 1.10707L31.537 5.10707L32.9512 3.69286ZM28.9512 1.10707L28.9536 1.10475L27.5394 -0.309463L27.537 -0.307143L28.9512 1.10707ZM28.2465 -0.602356H4.24182V1.39764H28.2465V-0.602356ZM3.53471 1.10475L3.53703 1.10707L4.95125 -0.307143L4.94893 -0.309463L3.53471 1.10475ZM3.53703 -0.307143L-0.462966 3.69286L0.951247 5.10707L4.95125 1.10707L3.53703 -0.307143Z" fill="#B0BAC9" mask="url(#path-1-inside-1_187_3449)"/>
</svg>
