<svg width="20" height="20" viewBox="0 0 20 20" fill="none" xmlns="http://www.w3.org/2000/svg">
<path fill-rule="evenodd" clip-rule="evenodd" d="M14.135 14.9974C12.8145 16.1215 11.1028 16.8 9.23268 16.8C5.05373 16.8 1.66602 13.4123 1.66602 9.23332C1.66602 5.05437 5.05373 1.66666 9.23268 1.66666C13.4116 1.66666 16.7993 5.05437 16.7993 9.23332C16.7993 11.0921 16.1291 12.7944 15.0171 14.1116L18.6491 17.7437L17.7652 18.6275L14.135 14.9974ZM15.5493 9.23332C15.5493 12.7219 12.7213 15.55 9.23268 15.55C5.74408 15.55 2.91602 12.7219 2.91602 9.23332C2.91602 5.74472 5.74408 2.91666 9.23268 2.91666C12.7213 2.91666 15.5493 5.74472 15.5493 9.23332Z" fill="black" fill-opacity="0.7"/>
</svg>
