<svg width="33" height="33" viewBox="0 0 33 33" fill="none" xmlns="http://www.w3.org/2000/svg">
<mask id="path-1-inside-1_79_2695" fill="white">
<path fill-rule="evenodd" clip-rule="evenodd" d="M0.672852 4.72391V28.7239L4.67053 32.7216H28.6752L32.6729 28.7239V4.72391L28.6729 0.723907L28.6752 0.721588H4.67053L4.67285 0.723907L0.672852 4.72391Z"/>
</mask>
<path fill-rule="evenodd" clip-rule="evenodd" d="M0.672852 4.72391V28.7239L4.67053 32.7216H28.6752L32.6729 28.7239V4.72391L28.6729 0.723907L28.6752 0.721588H4.67053L4.67285 0.723907L0.672852 4.72391Z" fill="white"/>
<path d="M0.672852 4.72391L-0.0342552 4.0168L-0.327148 4.30969V4.72391H0.672852ZM0.672852 28.7239H-0.327148V29.1381L-0.0342552 29.431L0.672852 28.7239ZM4.67053 32.7216L3.96343 33.4287L4.25632 33.7216H4.67053V32.7216ZM28.6752 32.7216V33.7216H29.0894L29.3823 33.4287L28.6752 32.7216ZM32.6729 28.7239L33.38 29.431L33.6729 29.1381V28.7239H32.6729ZM32.6729 4.72391H33.6729V4.30969L33.38 4.0168L32.6729 4.72391ZM28.6729 0.723907L27.9657 0.0168007L27.2586 0.723907L27.9657 1.43101L28.6729 0.723907ZM28.6752 0.721588L29.3823 1.42869L31.0894 -0.278412H28.6752V0.721588ZM4.67053 0.721588V-0.278412H2.25632L3.96343 1.42869L4.67053 0.721588ZM4.67285 0.723907L5.37996 1.43101L6.08707 0.723907L5.37996 0.0168007L4.67285 0.723907ZM-0.327148 4.72391V28.7239H1.67285V4.72391H-0.327148ZM-0.0342552 29.431L3.96343 33.4287L5.37764 32.0145L1.37996 28.0168L-0.0342552 29.431ZM4.67053 33.7216H28.6752V31.7216H4.67053V33.7216ZM29.3823 33.4287L33.38 29.431L31.9657 28.0168L27.9681 32.0145L29.3823 33.4287ZM33.6729 28.7239V4.72391H31.6729V28.7239H33.6729ZM33.38 4.0168L29.38 0.0168007L27.9657 1.43101L31.9657 5.43101L33.38 4.0168ZM29.38 1.43101L29.3823 1.42869L27.9681 0.0144814L27.9657 0.0168007L29.38 1.43101ZM28.6752 -0.278412H4.67053V1.72159H28.6752V-0.278412ZM3.96343 1.42869L3.96574 1.43101L5.37996 0.0168007L5.37764 0.0144814L3.96343 1.42869ZM3.96574 0.0168007L-0.0342552 4.0168L1.37996 5.43101L5.37996 1.43101L3.96574 0.0168007Z" fill="#B0BAC9" mask="url(#path-1-inside-1_79_2695)"/>
</svg>
