<svg width="32" height="33" viewBox="0 0 32 33" fill="none" xmlns="http://www.w3.org/2000/svg">
<mask id="path-1-inside-1_79_2719" fill="white">
<path fill-rule="evenodd" clip-rule="evenodd" d="M0 4.73135V28.7314L3.99768 32.729H28.0023L32 28.7314V4.73135L28 0.731354L28.0023 0.729034H3.99768L4 0.731354L0 4.73135Z"/>
</mask>
<path fill-rule="evenodd" clip-rule="evenodd" d="M0 4.73135V28.7314L3.99768 32.729H28.0023L32 28.7314V4.73135L28 0.731354L28.0023 0.729034H3.99768L4 0.731354L0 4.73135Z" fill="white"/>
<path d="M0 4.73135L-0.707107 4.02425L-1 4.31714V4.73135H0ZM0 28.7314H-1V29.1456L-0.707107 29.4385L0 28.7314ZM3.99768 32.729L3.29057 33.4361L3.58347 33.729H3.99768V32.729ZM28.0023 32.729V33.729H28.4165L28.7094 33.4361L28.0023 32.729ZM32 28.7314L32.7071 29.4385L33 29.1456V28.7314H32ZM32 4.73135H33V4.31714L32.7071 4.02425L32 4.73135ZM28 0.731354L27.2929 0.024247L26.5858 0.731354L27.2929 1.43846L28 0.731354ZM28.0023 0.729034L28.7094 1.43614L30.4165 -0.270966H28.0023V0.729034ZM3.99768 0.729034V-0.270966H1.58347L3.29057 1.43614L3.99768 0.729034ZM4 0.731354L4.70711 1.43846L5.41421 0.731354L4.70711 0.024247L4 0.731354ZM-1 4.73135V28.7314H1V4.73135H-1ZM-0.707107 29.4385L3.29057 33.4361L4.70479 32.0219L0.707107 28.0242L-0.707107 29.4385ZM3.99768 33.729H28.0023V31.729H3.99768V33.729ZM28.7094 33.4361L32.7071 29.4385L31.2929 28.0242L27.2952 32.0219L28.7094 33.4361ZM33 28.7314V4.73135H31V28.7314H33ZM32.7071 4.02425L28.7071 0.024247L27.2929 1.43846L31.2929 5.43846L32.7071 4.02425ZM28.7071 1.43846L28.7094 1.43614L27.2952 0.0219277L27.2929 0.024247L28.7071 1.43846ZM28.0023 -0.270966H3.99768V1.72903H28.0023V-0.270966ZM3.29057 1.43614L3.29289 1.43846L4.70711 0.024247L4.70479 0.0219277L3.29057 1.43614ZM3.29289 0.024247L-0.707107 4.02425L0.707107 5.43846L4.70711 1.43846L3.29289 0.024247Z" fill="#B0BAC9" mask="url(#path-1-inside-1_79_2719)"/>
</svg>
