<svg width="32" height="32" viewBox="0 0 32 32" fill="none" xmlns="http://www.w3.org/2000/svg">
<mask id="path-1-inside-1_79_3650" fill="white">
<path fill-rule="evenodd" clip-rule="evenodd" d="M0 4.00003V28L3.99768 31.9977H28.0023L32 28V4.00003L28 3.05176e-05L28.0023 -0.00228882H3.99768L4 3.05176e-05L0 4.00003Z"/>
</mask>
<path fill-rule="evenodd" clip-rule="evenodd" d="M0 4.00003V28L3.99768 31.9977H28.0023L32 28V4.00003L28 3.05176e-05L28.0023 -0.00228882H3.99768L4 3.05176e-05L0 4.00003Z" fill="white"/>
<path d="M0 4.00003L-0.707107 3.29292L-1 3.58582V4.00003H0ZM0 28H-1V28.4142L-0.707107 28.7071L0 28ZM3.99768 31.9977L3.29057 32.7048L3.58347 32.9977H3.99768V31.9977ZM28.0023 31.9977V32.9977H28.4165L28.7094 32.7048L28.0023 31.9977ZM32 28L32.7071 28.7071L33 28.4142V28H32ZM32 4.00003H33V3.58582L32.7071 3.29292L32 4.00003ZM28 3.05176e-05L27.2929 -0.707076L26.5858 3.05176e-05L27.2929 0.707137L28 3.05176e-05ZM28.0023 -0.00228882L28.7094 0.704818L30.4165 -1.00229H28.0023V-0.00228882ZM3.99768 -0.00228882V-1.00229H1.58347L3.29057 0.704818L3.99768 -0.00228882ZM4 3.05176e-05L4.70711 0.707137L5.41421 3.05176e-05L4.70711 -0.707076L4 3.05176e-05ZM-1 4.00003V28H1V4.00003H-1ZM-0.707107 28.7071L3.29057 32.7048L4.70479 31.2906L0.707107 27.2929L-0.707107 28.7071ZM3.99768 32.9977H28.0023V30.9977H3.99768V32.9977ZM28.7094 32.7048L32.7071 28.7071L31.2929 27.2929L27.2952 31.2906L28.7094 32.7048ZM33 28V4.00003H31V28H33ZM32.7071 3.29292L28.7071 -0.707076L27.2929 0.707137L31.2929 4.70714L32.7071 3.29292ZM28.7071 0.707137L28.7094 0.704818L27.2952 -0.709396L27.2929 -0.707076L28.7071 0.707137ZM28.0023 -1.00229H3.99768V0.997711H28.0023V-1.00229ZM3.29057 0.704818L3.29289 0.707137L4.70711 -0.707076L4.70479 -0.709396L3.29057 0.704818ZM3.29289 -0.707076L-0.707107 3.29292L0.707107 4.70714L4.70711 0.707137L3.29289 -0.707076Z" fill="#B0BAC9" mask="url(#path-1-inside-1_79_3650)"/>
</svg>
